<mxfile host="app.diagrams.net" modified="2023-05-05T20:58:12.477Z" agent="Mozilla/5.0 (X11; Linux x86_64) AppleWebKit/537.36 (KHTML, like Gecko) Chrome/112.0.0.0 Safari/537.36" etag="dHJ61GuM44UjEoA31HHP" version="21.2.9" type="github">
  <diagram name="Page-1" id="II3oAv3QAPUns39J6fh4">
    <mxGraphModel dx="3124" dy="2014" grid="1" gridSize="10" guides="1" tooltips="1" connect="1" arrows="1" fold="1" page="0" pageScale="1" pageWidth="850" pageHeight="1100" math="0" shadow="0">
      <root>
        <mxCell id="0" />
        <mxCell id="1" parent="0" />
        <mxCell id="FpOgpomaCXOTA1-fPbon-28" style="edgeStyle=orthogonalEdgeStyle;rounded=0;orthogonalLoop=1;jettySize=auto;html=1;exitX=1;exitY=0.5;exitDx=0;exitDy=0;entryX=0;entryY=0.343;entryDx=0;entryDy=0;entryPerimeter=0;" edge="1" parent="1" source="FpOgpomaCXOTA1-fPbon-1" target="FpOgpomaCXOTA1-fPbon-13">
          <mxGeometry relative="1" as="geometry" />
        </mxCell>
        <mxCell id="FpOgpomaCXOTA1-fPbon-1" value="" style="rounded=0;whiteSpace=wrap;html=1;" vertex="1" parent="1">
          <mxGeometry x="-346" y="190" width="140" height="110" as="geometry" />
        </mxCell>
        <mxCell id="FpOgpomaCXOTA1-fPbon-2" value="INTERNET_HOST&lt;br&gt;floating: 10.50.38.156&lt;br&gt;eth0:10.10.0.40/27&lt;br&gt;Ports:21,22,23,80&lt;br&gt;&lt;br&gt;student: password" style="text;html=1;strokeColor=none;fillColor=none;align=center;verticalAlign=middle;whiteSpace=wrap;rounded=0;" vertex="1" parent="1">
          <mxGeometry x="-306" y="230" width="60" height="30" as="geometry" />
        </mxCell>
        <mxCell id="FpOgpomaCXOTA1-fPbon-4" value="Nmap scan report for 10.10.0.40&lt;br&gt;21/tcp open ftp&lt;br&gt;22/tcp open ssh&lt;br&gt;23/tcp open telnet&lt;br&gt;&lt;div style=&quot;&quot;&gt;&lt;span style=&quot;background-color: initial;&quot;&gt;80/tcp open http&lt;/span&gt;&lt;/div&gt;" style="text;html=1;strokeColor=none;fillColor=none;align=left;verticalAlign=middle;whiteSpace=wrap;rounded=0;" vertex="1" parent="1">
          <mxGeometry x="-110" y="-50" width="210" height="130" as="geometry" />
        </mxCell>
        <mxCell id="FpOgpomaCXOTA1-fPbon-8" style="edgeStyle=orthogonalEdgeStyle;rounded=0;orthogonalLoop=1;jettySize=auto;html=1;exitX=0;exitY=0.5;exitDx=0;exitDy=0;entryX=0;entryY=0.25;entryDx=0;entryDy=0;" edge="1" parent="1" source="FpOgpomaCXOTA1-fPbon-6" target="FpOgpomaCXOTA1-fPbon-7">
          <mxGeometry relative="1" as="geometry" />
        </mxCell>
        <mxCell id="FpOgpomaCXOTA1-fPbon-6" value="" style="whiteSpace=wrap;html=1;aspect=fixed;" vertex="1" parent="1">
          <mxGeometry x="40" y="-120" width="80" height="80" as="geometry" />
        </mxCell>
        <mxCell id="FpOgpomaCXOTA1-fPbon-7" value="Hostname&lt;br&gt;IP(s)&lt;br&gt;Ports&lt;br&gt;Tools" style="text;html=1;strokeColor=none;fillColor=none;align=center;verticalAlign=middle;whiteSpace=wrap;rounded=0;" vertex="1" parent="1">
          <mxGeometry x="50" y="-95" width="60" height="30" as="geometry" />
        </mxCell>
        <mxCell id="FpOgpomaCXOTA1-fPbon-17" style="edgeStyle=orthogonalEdgeStyle;rounded=0;orthogonalLoop=1;jettySize=auto;html=1;entryX=0;entryY=0.5;entryDx=0;entryDy=0;" edge="1" parent="1" source="FpOgpomaCXOTA1-fPbon-13" target="FpOgpomaCXOTA1-fPbon-15">
          <mxGeometry relative="1" as="geometry" />
        </mxCell>
        <mxCell id="FpOgpomaCXOTA1-fPbon-65" style="edgeStyle=orthogonalEdgeStyle;rounded=0;orthogonalLoop=1;jettySize=auto;html=1;entryX=0.447;entryY=-0.001;entryDx=0;entryDy=0;entryPerimeter=0;" edge="1" parent="1" source="FpOgpomaCXOTA1-fPbon-13" target="FpOgpomaCXOTA1-fPbon-23">
          <mxGeometry relative="1" as="geometry" />
        </mxCell>
        <mxCell id="FpOgpomaCXOTA1-fPbon-13" value="" style="ellipse;whiteSpace=wrap;html=1;aspect=fixed;" vertex="1" parent="1">
          <mxGeometry x="210" y="180" width="190" height="190" as="geometry" />
        </mxCell>
        <mxCell id="FpOgpomaCXOTA1-fPbon-14" value="RED-SCR&lt;br&gt;172.16.120.1&lt;br&gt;Ports:22&lt;br&gt;48597&lt;br&gt;&lt;br&gt;vyos: password" style="text;html=1;strokeColor=none;fillColor=none;align=center;verticalAlign=middle;whiteSpace=wrap;rounded=0;" vertex="1" parent="1">
          <mxGeometry x="262.5" y="225" width="85" height="100" as="geometry" />
        </mxCell>
        <mxCell id="FpOgpomaCXOTA1-fPbon-15" value="" style="rounded=0;whiteSpace=wrap;html=1;" vertex="1" parent="1">
          <mxGeometry x="592" y="60" width="160" height="130" as="geometry" />
        </mxCell>
        <mxCell id="FpOgpomaCXOTA1-fPbon-16" value="red-dmz-host-1-student-7&lt;br&gt;floating:172.16.101.2&lt;br&gt;Ports:22&lt;br&gt;filtered: 4444&lt;br&gt;wireshark,telnet,wget,curl" style="text;html=1;strokeColor=none;fillColor=none;align=center;verticalAlign=middle;whiteSpace=wrap;rounded=0;" vertex="1" parent="1">
          <mxGeometry x="637" y="100" width="70" height="40" as="geometry" />
        </mxCell>
        <mxCell id="FpOgpomaCXOTA1-fPbon-25" style="edgeStyle=orthogonalEdgeStyle;rounded=0;orthogonalLoop=1;jettySize=auto;html=1;exitX=0.5;exitY=1;exitDx=0;exitDy=0;" edge="1" parent="1" source="FpOgpomaCXOTA1-fPbon-23" target="FpOgpomaCXOTA1-fPbon-26">
          <mxGeometry relative="1" as="geometry">
            <mxPoint x="315" y="806" as="targetPoint" />
          </mxGeometry>
        </mxCell>
        <mxCell id="FpOgpomaCXOTA1-fPbon-23" value="" style="ellipse;whiteSpace=wrap;html=1;aspect=fixed;" vertex="1" parent="1">
          <mxGeometry x="220" y="536" width="190" height="190" as="geometry" />
        </mxCell>
        <mxCell id="FpOgpomaCXOTA1-fPbon-24" value="RED-IPS&lt;br&gt;floating:172.16.120.5&lt;br&gt;Ports:22&lt;br&gt;tcpdump,telnet,wget,curl" style="text;html=1;strokeColor=none;fillColor=none;align=center;verticalAlign=middle;whiteSpace=wrap;rounded=0;" vertex="1" parent="1">
          <mxGeometry x="272.5" y="581" width="85" height="100" as="geometry" />
        </mxCell>
        <mxCell id="FpOgpomaCXOTA1-fPbon-48" style="edgeStyle=orthogonalEdgeStyle;rounded=0;orthogonalLoop=1;jettySize=auto;html=1;exitX=1;exitY=0.5;exitDx=0;exitDy=0;entryX=0;entryY=0.5;entryDx=0;entryDy=0;" edge="1" parent="1" source="FpOgpomaCXOTA1-fPbon-26" target="FpOgpomaCXOTA1-fPbon-49">
          <mxGeometry relative="1" as="geometry">
            <mxPoint x="760" y="1025.2105263157896" as="targetPoint" />
          </mxGeometry>
        </mxCell>
        <mxCell id="FpOgpomaCXOTA1-fPbon-55" style="edgeStyle=orthogonalEdgeStyle;rounded=0;orthogonalLoop=1;jettySize=auto;html=1;exitX=0.5;exitY=1;exitDx=0;exitDy=0;entryX=0.5;entryY=0;entryDx=0;entryDy=0;" edge="1" parent="1" source="FpOgpomaCXOTA1-fPbon-26" target="FpOgpomaCXOTA1-fPbon-31">
          <mxGeometry relative="1" as="geometry" />
        </mxCell>
        <mxCell id="FpOgpomaCXOTA1-fPbon-56" style="edgeStyle=orthogonalEdgeStyle;rounded=0;orthogonalLoop=1;jettySize=auto;html=1;exitX=0.5;exitY=1;exitDx=0;exitDy=0;entryX=0.5;entryY=0;entryDx=0;entryDy=0;" edge="1" parent="1" source="FpOgpomaCXOTA1-fPbon-26" target="FpOgpomaCXOTA1-fPbon-29">
          <mxGeometry relative="1" as="geometry" />
        </mxCell>
        <mxCell id="FpOgpomaCXOTA1-fPbon-57" style="edgeStyle=orthogonalEdgeStyle;rounded=0;orthogonalLoop=1;jettySize=auto;html=1;exitX=0.5;exitY=1;exitDx=0;exitDy=0;entryX=0.5;entryY=0;entryDx=0;entryDy=0;" edge="1" parent="1" source="FpOgpomaCXOTA1-fPbon-26" target="FpOgpomaCXOTA1-fPbon-33">
          <mxGeometry relative="1" as="geometry" />
        </mxCell>
        <mxCell id="FpOgpomaCXOTA1-fPbon-58" style="edgeStyle=orthogonalEdgeStyle;rounded=0;orthogonalLoop=1;jettySize=auto;html=1;exitX=0.5;exitY=1;exitDx=0;exitDy=0;" edge="1" parent="1" source="FpOgpomaCXOTA1-fPbon-26" target="FpOgpomaCXOTA1-fPbon-35">
          <mxGeometry relative="1" as="geometry" />
        </mxCell>
        <mxCell id="FpOgpomaCXOTA1-fPbon-26" value="" style="ellipse;whiteSpace=wrap;html=1;aspect=fixed;" vertex="1" parent="1">
          <mxGeometry x="220" y="930" width="190" height="190" as="geometry" />
        </mxCell>
        <mxCell id="FpOgpomaCXOTA1-fPbon-27" value="RED-POP&lt;br&gt;floating:172.16.120.9&lt;br&gt;Ports:22&lt;br&gt;tcpdump,telnet,wget,curl" style="text;html=1;strokeColor=none;fillColor=none;align=center;verticalAlign=middle;whiteSpace=wrap;rounded=0;" vertex="1" parent="1">
          <mxGeometry x="272.5" y="975" width="85" height="100" as="geometry" />
        </mxCell>
        <mxCell id="FpOgpomaCXOTA1-fPbon-29" value="" style="rounded=0;whiteSpace=wrap;html=1;" vertex="1" parent="1">
          <mxGeometry x="-120" y="1250" width="195" height="130" as="geometry" />
        </mxCell>
        <mxCell id="FpOgpomaCXOTA1-fPbon-30" value="unk/red-host-2&lt;br&gt;floating:172.16.182.110&lt;br&gt;Ports:22,80,1980,1982,1988,1989&lt;br&gt;UDP: 1980,1984,1989" style="text;html=1;strokeColor=none;fillColor=none;align=center;verticalAlign=middle;whiteSpace=wrap;rounded=0;" vertex="1" parent="1">
          <mxGeometry x="-97.5" y="1265" width="150" height="100" as="geometry" />
        </mxCell>
        <mxCell id="FpOgpomaCXOTA1-fPbon-31" value="" style="rounded=0;whiteSpace=wrap;html=1;" vertex="1" parent="1">
          <mxGeometry x="120" y="1250" width="160" height="130" as="geometry" />
        </mxCell>
        <mxCell id="FpOgpomaCXOTA1-fPbon-33" value="" style="rounded=0;whiteSpace=wrap;html=1;" vertex="1" parent="1">
          <mxGeometry x="315" y="1250" width="160" height="130" as="geometry" />
        </mxCell>
        <mxCell id="FpOgpomaCXOTA1-fPbon-35" value="" style="rounded=0;whiteSpace=wrap;html=1;" vertex="1" parent="1">
          <mxGeometry x="510" y="1250" width="160" height="130" as="geometry" />
        </mxCell>
        <mxCell id="FpOgpomaCXOTA1-fPbon-38" value="red-host-4&lt;br&gt;floating:172.16.182.118&lt;br&gt;Ports:22&lt;br&gt;filtered:&amp;nbsp;" style="text;html=1;strokeColor=none;fillColor=none;align=center;verticalAlign=middle;whiteSpace=wrap;rounded=0;" vertex="1" parent="1">
          <mxGeometry x="155" y="1280" width="90" height="70" as="geometry" />
        </mxCell>
        <mxCell id="FpOgpomaCXOTA1-fPbon-39" value="red-host-3&lt;br&gt;floating:172.16.182.114&lt;br&gt;Ports:22&lt;br&gt;filtered:&amp;nbsp;" style="text;html=1;strokeColor=none;fillColor=none;align=center;verticalAlign=middle;whiteSpace=wrap;rounded=0;" vertex="1" parent="1">
          <mxGeometry x="350" y="1280" width="90" height="70" as="geometry" />
        </mxCell>
        <mxCell id="FpOgpomaCXOTA1-fPbon-40" value="red-host-1&lt;br&gt;floating:172.16.182.106&lt;br&gt;Ports:22&lt;br&gt;filtered: 3389" style="text;html=1;strokeColor=none;fillColor=none;align=center;verticalAlign=middle;whiteSpace=wrap;rounded=0;" vertex="1" parent="1">
          <mxGeometry x="550" y="1280" width="90" height="70" as="geometry" />
        </mxCell>
        <mxCell id="FpOgpomaCXOTA1-fPbon-63" style="edgeStyle=orthogonalEdgeStyle;rounded=0;orthogonalLoop=1;jettySize=auto;html=1;exitX=0.5;exitY=1;exitDx=0;exitDy=0;entryX=0.5;entryY=0;entryDx=0;entryDy=0;" edge="1" parent="1" source="FpOgpomaCXOTA1-fPbon-49" target="FpOgpomaCXOTA1-fPbon-59">
          <mxGeometry relative="1" as="geometry" />
        </mxCell>
        <mxCell id="FpOgpomaCXOTA1-fPbon-64" style="edgeStyle=orthogonalEdgeStyle;rounded=0;orthogonalLoop=1;jettySize=auto;html=1;exitX=0.5;exitY=1;exitDx=0;exitDy=0;" edge="1" parent="1" source="FpOgpomaCXOTA1-fPbon-49" target="FpOgpomaCXOTA1-fPbon-61">
          <mxGeometry relative="1" as="geometry" />
        </mxCell>
        <mxCell id="FpOgpomaCXOTA1-fPbon-49" value="" style="ellipse;whiteSpace=wrap;html=1;aspect=fixed;" vertex="1" parent="1">
          <mxGeometry x="890" y="930" width="190" height="190" as="geometry" />
        </mxCell>
        <mxCell id="FpOgpomaCXOTA1-fPbon-50" value="RED-POP2&lt;br&gt;floating:172.140.5&lt;br&gt;Ports:22&lt;br&gt;tcpdump,telnet,wget,curl" style="text;html=1;strokeColor=none;fillColor=none;align=center;verticalAlign=middle;whiteSpace=wrap;rounded=0;" vertex="1" parent="1">
          <mxGeometry x="942.5" y="975" width="85" height="100" as="geometry" />
        </mxCell>
        <mxCell id="FpOgpomaCXOTA1-fPbon-59" value="" style="rounded=0;whiteSpace=wrap;html=1;" vertex="1" parent="1">
          <mxGeometry x="820" y="1170" width="190" height="130" as="geometry" />
        </mxCell>
        <mxCell id="FpOgpomaCXOTA1-fPbon-60" value="unk/red-int-dmz2-host-1&lt;br&gt;floating:172.16.140.33&lt;br&gt;Ports:22,80,2305,2800,2828&amp;nbsp;&lt;br&gt;UDP: 2000,2011,2200,2250,2999,2800" style="text;html=1;strokeColor=none;fillColor=none;align=center;verticalAlign=middle;whiteSpace=wrap;rounded=0;" vertex="1" parent="1">
          <mxGeometry x="870" y="1200" width="100" height="80" as="geometry" />
        </mxCell>
        <mxCell id="FpOgpomaCXOTA1-fPbon-61" value="" style="rounded=0;whiteSpace=wrap;html=1;" vertex="1" parent="1">
          <mxGeometry x="1060" y="1170" width="160" height="130" as="geometry" />
        </mxCell>
        <mxCell id="FpOgpomaCXOTA1-fPbon-62" value="red-int-dmz2-host-2&lt;br&gt;floating:172.16.140.35&lt;br&gt;Ports:22&lt;br&gt;filtered: 5150" style="text;html=1;strokeColor=none;fillColor=none;align=center;verticalAlign=middle;whiteSpace=wrap;rounded=0;" vertex="1" parent="1">
          <mxGeometry x="1100" y="1200" width="90" height="70" as="geometry" />
        </mxCell>
        <mxCell id="FpOgpomaCXOTA1-fPbon-67" value="INTERNET&lt;br&gt;172.16.120.1/30" style="text;html=1;strokeColor=none;fillColor=none;align=center;verticalAlign=middle;whiteSpace=wrap;rounded=0;" vertex="1" parent="1">
          <mxGeometry x="90" y="210" width="60" height="30" as="geometry" />
        </mxCell>
        <mxCell id="FpOgpomaCXOTA1-fPbon-68" value="REDNET&lt;br&gt;172.16.120.6/30" style="text;html=1;strokeColor=none;fillColor=none;align=center;verticalAlign=middle;whiteSpace=wrap;rounded=0;rotation=90;" vertex="1" parent="1">
          <mxGeometry x="310" y="430" width="60" height="30" as="geometry" />
        </mxCell>
        <mxCell id="FpOgpomaCXOTA1-fPbon-69" value="eth0" style="text;html=1;strokeColor=none;fillColor=none;align=center;verticalAlign=middle;whiteSpace=wrap;rounded=0;" vertex="1" parent="1">
          <mxGeometry x="170" y="200" width="60" height="30" as="geometry" />
        </mxCell>
        <mxCell id="FpOgpomaCXOTA1-fPbon-70" value="eth1" style="text;html=1;strokeColor=none;fillColor=none;align=center;verticalAlign=middle;whiteSpace=wrap;rounded=0;rotation=0;" vertex="1" parent="1">
          <mxGeometry x="322.5" y="360" width="60" height="30" as="geometry" />
        </mxCell>
        <mxCell id="FpOgpomaCXOTA1-fPbon-71" value="eth0" style="text;html=1;strokeColor=none;fillColor=none;align=center;verticalAlign=middle;whiteSpace=wrap;rounded=0;" vertex="1" parent="1">
          <mxGeometry x="330" y="506" width="60" height="30" as="geometry" />
        </mxCell>
        <mxCell id="FpOgpomaCXOTA1-fPbon-72" value=".2" style="text;html=1;strokeColor=none;fillColor=none;align=center;verticalAlign=middle;whiteSpace=wrap;rounded=0;" vertex="1" parent="1">
          <mxGeometry x="530" y="90" width="60" height="30" as="geometry" />
        </mxCell>
        <mxCell id="FpOgpomaCXOTA1-fPbon-73" value=".5" style="text;html=1;strokeColor=none;fillColor=none;align=center;verticalAlign=middle;whiteSpace=wrap;rounded=0;" vertex="1" parent="1">
          <mxGeometry x="830" y="990" width="60" height="30" as="geometry" />
        </mxCell>
        <mxCell id="FpOgpomaCXOTA1-fPbon-74" style="edgeStyle=orthogonalEdgeStyle;rounded=0;orthogonalLoop=1;jettySize=auto;html=1;exitX=0.75;exitY=1;exitDx=0;exitDy=0;entryX=0.653;entryY=1.016;entryDx=0;entryDy=0;entryPerimeter=0;" edge="1" parent="1" source="FpOgpomaCXOTA1-fPbon-70" target="FpOgpomaCXOTA1-fPbon-70">
          <mxGeometry relative="1" as="geometry" />
        </mxCell>
        <mxCell id="FpOgpomaCXOTA1-fPbon-75" value="eth1" style="text;html=1;strokeColor=none;fillColor=none;align=center;verticalAlign=middle;whiteSpace=wrap;rounded=0;rotation=0;" vertex="1" parent="1">
          <mxGeometry x="250" y="726" width="60" height="30" as="geometry" />
        </mxCell>
        <mxCell id="FpOgpomaCXOTA1-fPbon-76" value="eth0" style="text;html=1;strokeColor=none;fillColor=none;align=center;verticalAlign=middle;whiteSpace=wrap;rounded=0;" vertex="1" parent="1">
          <mxGeometry x="322.5" y="900" width="60" height="30" as="geometry" />
        </mxCell>
        <mxCell id="FpOgpomaCXOTA1-fPbon-77" value="eth1" style="text;html=1;strokeColor=none;fillColor=none;align=center;verticalAlign=middle;whiteSpace=wrap;rounded=0;rotation=0;" vertex="1" parent="1">
          <mxGeometry x="245" y="1150" width="60" height="30" as="geometry" />
        </mxCell>
        <mxCell id="FpOgpomaCXOTA1-fPbon-78" value="eth2" style="text;html=1;strokeColor=none;fillColor=none;align=center;verticalAlign=middle;whiteSpace=wrap;rounded=0;rotation=0;" vertex="1" parent="1">
          <mxGeometry x="410" y="1030" width="60" height="30" as="geometry" />
        </mxCell>
        <mxCell id="FpOgpomaCXOTA1-fPbon-79" value="eth0" style="text;html=1;strokeColor=none;fillColor=none;align=center;verticalAlign=middle;whiteSpace=wrap;rounded=0;rotation=0;" vertex="1" parent="1">
          <mxGeometry x="840" y="1030" width="60" height="30" as="geometry" />
        </mxCell>
        <mxCell id="FpOgpomaCXOTA1-fPbon-80" value="eth0" style="text;html=1;strokeColor=none;fillColor=none;align=center;verticalAlign=middle;whiteSpace=wrap;rounded=0;rotation=0;" vertex="1" parent="1">
          <mxGeometry x="920" y="1120" width="60" height="30" as="geometry" />
        </mxCell>
        <mxCell id="FpOgpomaCXOTA1-fPbon-81" value="eth0" style="text;html=1;strokeColor=none;fillColor=none;align=center;verticalAlign=middle;whiteSpace=wrap;rounded=0;rotation=0;" vertex="1" parent="1">
          <mxGeometry x="1010" y="1120" width="60" height="30" as="geometry" />
        </mxCell>
        <mxCell id="FpOgpomaCXOTA1-fPbon-82" value=".9" style="text;html=1;strokeColor=none;fillColor=none;align=center;verticalAlign=middle;whiteSpace=wrap;rounded=0;" vertex="1" parent="1">
          <mxGeometry x="250" y="900" width="60" height="30" as="geometry" />
        </mxCell>
        <mxCell id="FpOgpomaCXOTA1-fPbon-83" value=".10" style="text;html=1;strokeColor=none;fillColor=none;align=center;verticalAlign=middle;whiteSpace=wrap;rounded=0;" vertex="1" parent="1">
          <mxGeometry x="305" y="726" width="60" height="30" as="geometry" />
        </mxCell>
        <mxCell id="FpOgpomaCXOTA1-fPbon-85" value="eth0" style="text;html=1;strokeColor=none;fillColor=none;align=center;verticalAlign=middle;whiteSpace=wrap;rounded=0;" vertex="1" parent="1">
          <mxGeometry x="532" y="130" width="60" height="30" as="geometry" />
        </mxCell>
        <mxCell id="FpOgpomaCXOTA1-fPbon-86" value="" style="ellipse;shape=cloud;whiteSpace=wrap;html=1;" vertex="1" parent="1">
          <mxGeometry x="-130" y="210" width="120" height="80" as="geometry" />
        </mxCell>
        <mxCell id="FpOgpomaCXOTA1-fPbon-87" value=".2" style="text;html=1;strokeColor=none;fillColor=none;align=center;verticalAlign=middle;whiteSpace=wrap;rounded=0;" vertex="1" parent="1">
          <mxGeometry x="-35" y="220" width="60" height="30" as="geometry" />
        </mxCell>
        <mxCell id="FpOgpomaCXOTA1-fPbon-88" value=".1" style="text;html=1;strokeColor=none;fillColor=none;align=center;verticalAlign=middle;whiteSpace=wrap;rounded=0;" vertex="1" parent="1">
          <mxGeometry x="170" y="220" width="60" height="30" as="geometry" />
        </mxCell>
        <mxCell id="FpOgpomaCXOTA1-fPbon-89" value=".30" style="text;html=1;strokeColor=none;fillColor=none;align=center;verticalAlign=middle;whiteSpace=wrap;rounded=0;" vertex="1" parent="1">
          <mxGeometry x="400" y="240" width="60" height="30" as="geometry" />
        </mxCell>
        <mxCell id="FpOgpomaCXOTA1-fPbon-90" value="eth2" style="text;html=1;strokeColor=none;fillColor=none;align=center;verticalAlign=middle;whiteSpace=wrap;rounded=0;" vertex="1" parent="1">
          <mxGeometry x="410" y="290" width="60" height="30" as="geometry" />
        </mxCell>
      </root>
    </mxGraphModel>
  </diagram>
</mxfile>
